<svg id="Layer_1" data-name="Layer 1" xmlns="http://www.w3.org/2000/svg" viewBox="0 0 199.82 189.43"><defs><style>.cls-1{fill:#f1f2f2;}.cls-2{fill:#090b0c;}.cls-3{fill:#07090a;}.cls-4{fill:#5c8eb8;}.cls-5{fill:#5a8cb6;}</style></defs><path class="cls-1" d="M265.51,506.43c-.15-2.26-.44-5.43-.73-9.6a23.23,23.23,0,0,0-1.54-4.87c-1.11-2.06-2.12-2.8-3.5-2.86-2.36-.11-3.22-1.48-3.6-3.67-.66-3.74-.82-7.55-2.38-11.14-4.7-10.8-10.35-20.79-19-29.15-6.64-6.42-13.24-12.65-21.17-17.51-13.77-8.46-29-12-44.77-13.79-8.66-1-17.32.35-25.82,2.1a97.14,97.14,0,0,0-51.63,28.65c-6.61,6.91-11.63,14.89-16.27,23.08S68.41,485,66.82,494.25c-1.87,10.92-1.25,21.65.66,32.45a82.1,82.1,0,0,0,11.79,29.54c4.33,6.88,9,13.69,15,19,8.73,7.71,18.08,14.61,29.06,19.33,12.87,5.53,26.14,7.91,40,8.31,10.16.4,20-1.86,29.53-4.67,19.39-5.67,34.9-17.29,47.66-32.7a80.71,80.71,0,0,0,13.53-24,49.88,49.88,0,0,0,3.45-17.62c0-1.39.27-2.78,1.51-2.91a23.73,23.73,0,0,1,3-.24,3.14,3.14,0,0,0,2.6-2.35,30.84,30.84,0,0,0,.87-7.41C265.44,509,265.47,508.44,265.51,506.43Zm-18.25,23.68c-2.47,10-7.31,18.88-13.4,27.16-5.17,7-10.94,13.53-18.07,18.53-16.87,11.83-35.57,17.84-56.36,17-22.67-.95-41.93-9.36-58.3-25.07-13.61-13.06-20.87-29-24.11-47.33a56.91,56.91,0,0,1-1.2-11.52c.48-19.5,6.07-37.47,18.52-52.52,17.3-20.93,39.86-31.95,67.27-32.44,18.92-.34,36.06,5,51.78,15.56,9.63,6.5,16.92,14.91,23.42,24.34A71.92,71.92,0,0,1,245.19,480c1.46,4,1,3.94-3.24,4.51-8.1,1.1-12.4-1.66-16.36-9.39-10.46-20.4-28.4-31.68-50.76-35.46-18.07-3.06-35,.47-50.78,10.22-9,5.59-15.76,13.1-21.78,21.63-7.64,10.83-10.82,23-11.16,35.86-.29,11.22,1.84,22.31,7.5,32.06s12.49,18.91,22.14,25.4c.92.61,1.85,1.76,2.93,1.13.85-.49.29-1.84.35-2.81.32-5.72-.56-11.46.61-17.17,1.57-7.66,4.86-14.28,11.29-19,1.64-1.19,2.76-3,4.7-3.8.91-.39,1.18-1,0-1.92C131.91,515,127.09,506.13,125,496c-1.64-7.93-.16-15.89,3.39-23.19,5.61-11.51,14.65-19.33,27.39-21.39,12.57-2,24.5-.24,34.52,9a44.49,44.49,0,0,1,11.18,16.23,14.64,14.64,0,0,1,1,4.87c.3,7,1.41,14.21-1.15,21-2.39,6.35-5.34,12.43-11.51,16.22a31.93,31.93,0,0,0-4.11,3.68,58.88,58.88,0,0,1,8.51,6.6,25.27,25.27,0,0,1,8.5,17.38c.28,5.74,0,11.51.07,17.27,0,.62-.38,1.44.38,1.82s1.27-.23,1.8-.61c12.65-9.12,22-20.63,26.23-35.9.68-2.5,2-3.46,4.49-3.31,2.71.16,5.43,0,8.14,0C247.73,525.77,248.18,526.37,247.26,530.11ZM254,512.72c-6.48,0-6.59.11-6.55,6.58,0,3-1.08,4.12-4,3.78a33,33,0,0,0-3.72,0c-7.27,0-7.42,0-7.24-7.2.07-2.65-.76-3.11-3.19-3.07-7.75.13-7.81,0-7.73-7.69.06-6.29-1.58-6.75,6.54-6.46,3,.1,4-.54,3.89-3.75-.28-7.17-.08-7.18,7.12-7.18,7.75,0,7.88,0,7.72,7.65-.06,2.62.72,3.1,3.17,3.09,8.56,0,7.6-1.5,7.66,7.71,0,.9-.06,1.81,0,2.7C257.94,511.57,256.85,512.71,254,512.72Z" transform="translate(-65.69 -413.51)"/><path class="cls-2" d="M185.67,522.44a58.88,58.88,0,0,1,8.51,6.6,25.27,25.27,0,0,1,8.5,17.38c.28,5.74,0,11.51.07,17.27,0,.62-.38,1.44.38,1.82s1.27-.23,1.8-.61c12.65-9.12,22-20.63,26.23-35.9.68-2.5,2-3.46,4.49-3.31,2.71.16,5.43,0,8.14,0,3.94,0,4.39.64,3.47,4.38-2.47,10-7.31,18.88-13.4,27.16-5.17,7-10.94,13.53-18.07,18.53-16.87,11.83-35.57,17.84-56.36,17-22.67-.95-41.93-9.36-58.3-25.07-13.61-13.06-20.87-29-24.11-47.33a56.91,56.91,0,0,1-1.2-11.52c.48-19.5,6.07-37.47,18.52-52.52,17.3-20.93,39.86-31.95,67.27-32.44,18.92-.34,36.06,5,51.78,15.56,9.63,6.5,16.92,14.91,23.42,24.34A71.92,71.92,0,0,1,245.19,480c1.46,4,1,3.94-3.24,4.51-8.1,1.1-12.4-1.66-16.36-9.39-10.46-20.4-28.4-31.68-50.76-35.46-18.07-3.06-35,.47-50.78,10.22-9,5.59-15.76,13.1-21.78,21.63-7.64,10.83-10.82,23-11.16,35.86-.29,11.22,1.84,22.31,7.5,32.06s12.49,18.91,22.14,25.4c.92.61,1.85,1.76,2.93,1.13.85-.49.29-1.84.35-2.81.32-5.72-.56-11.46.61-17.17,1.57-7.66,4.86-14.28,11.29-19,1.64-1.19,2.76-3,4.7-3.8.91-.39,1.18-1,0-1.92C131.91,515,127.09,506.13,125,496c-1.64-7.93-.16-15.89,3.39-23.19,5.61-11.51,14.65-19.33,27.39-21.39,12.57-2,24.5-.24,34.52,9a44.49,44.49,0,0,1,11.18,16.23,14.64,14.64,0,0,1,1,4.87c.3,7,1.41,14.21-1.15,21-2.39,6.35-5.34,12.43-11.51,16.22A31.93,31.93,0,0,0,185.67,522.44Zm-58.82,35.64c0,2.46.14,4.39,0,6.3s1.13,4.63-1,5.58c-1.94.87-4-1-5.72-2.2-8.93-6-15.81-14.06-21.61-22.87-7.37-11.2-10.5-24-10.19-37.27.33-14.34,3.92-27.85,13-39.63,6.68-8.65,13.94-16.28,23.58-21.79,15.93-9.11,32.82-12.51,50.77-9.24,24,4.37,42.48,17,53.66,38.88,2.49,4.89,5.17,6.68,10.19,5.78a2.51,2.51,0,0,1,.67,0c2,.18,2.16-.67,1.7-2.44-.92-3.44-3.05-6.19-4.75-9.2-6.15-10.9-13.84-20.26-24.31-27.53a85.23,85.23,0,0,0-59.22-15.23C131.51,429.49,113,439,98.49,455.63c-15.27,17.56-21,38.38-18.74,61.49,2.47,25,14.76,44.31,35.12,58.45a79.65,79.65,0,0,0,33.63,13.32,89,89,0,0,0,45.94-4.58,78.19,78.19,0,0,0,33-23.28c6.51-7.87,12.22-16.42,15.48-26.24,2.25-6.79,2.3-6-4.51-6.1-2.36,0-4.1,0-5.08,3-5.28,16.11-15.52,28.41-29.82,37.42-.82.51-1.56,1.56-2.69,1s-.88-2-.88-3c0-6.21.08-12.42-.05-18.63A21.87,21.87,0,0,0,191.23,531c-2.78-2.22-5.49-4.53-8.22-6.83-1.31-1.1-2-2.65-.21-3.56,3.26-1.62,5.2-4.65,8-6.73a21.79,21.79,0,0,0,8.2-13.81c2.24-12.47,1.85-24.42-7.95-34.78s-21.44-13.4-34.6-11.1c-9.36,1.63-17.37,6.48-22.62,14.94-5,8-7.89,16.65-6,25.92,2.2,10.84,7.52,20.12,17.49,26,1.28.75,1.49,1.52.3,2.2-3.46,2-6.05,5-9.16,7.35-5.44,4.08-7.24,9.92-8.94,15.94C126.36,550.49,127,554.58,126.85,558.08Z" transform="translate(-65.69 -413.51)"/><path class="cls-3" d="M239.76,523.06c-7.27,0-7.42,0-7.24-7.2.07-2.65-.76-3.11-3.19-3.07-7.75.13-7.81,0-7.73-7.69.06-6.29-1.58-6.75,6.54-6.46,3,.1,4-.54,3.89-3.75-.28-7.17-.08-7.18,7.12-7.18,7.75,0,7.88,0,7.72,7.65-.06,2.62.72,3.1,3.17,3.09,8.56,0,7.6-1.5,7.66,7.71,0,.9-.06,1.81,0,2.7.22,2.71-.87,3.85-3.7,3.86-6.48,0-6.59.11-6.55,6.58,0,3-1.08,4.12-4,3.78A33,33,0,0,0,239.76,523.06Zm-.24-32.47c-4.61,0-4.61,0-4.68,2.56-.21,7.93-.21,8-8.07,8.23-2,.06-2.45.69-2.48,2.56-.12,6.16-.2,6.16,5.92,6.16a8.68,8.68,0,0,0,1,0c2.86-.33,4.06.77,4,3.81-.1,6.55,0,6.46,6.63,6.41,2.06,0,3-.57,2.69-2.67a15.28,15.28,0,0,1,0-2c0-5.75,0-5.72,5.79-5.76,5.29,0,4.27.68,4.66-4.37.28-3.6-.93-4.9-4.41-4.3a12.5,12.5,0,0,1-2,0c-4.43,0-4.43,0-4.45-4.52,0-.45,0-.9,0-1.36C244,489.94,244.9,490.67,239.52,490.59Z" transform="translate(-65.69 -413.51)"/><path class="cls-4" d="M126.85,558.08c.19-3.5-.49-7.59.64-11.58,1.7-6,3.5-11.86,8.94-15.94,3.11-2.34,5.7-5.37,9.16-7.35,1.19-.68,1-1.45-.3-2.2-10-5.84-15.29-15.12-17.49-26-1.89-9.27,1-17.95,6-25.92,5.25-8.46,13.26-13.31,22.62-14.94,13.16-2.3,24.81.75,34.6,11.1s10.19,22.31,7.95,34.78a21.79,21.79,0,0,1-8.2,13.81c-2.77,2.08-4.71,5.11-8,6.73-1.82.91-1.1,2.46.21,3.56,2.73,2.3,5.44,4.61,8.22,6.83a21.87,21.87,0,0,1,8.66,17.39c.13,6.21,0,12.42.05,18.63,0,1.08-.38,2.39.88,3s1.87-.46,2.69-1c14.3-9,24.54-21.31,29.82-37.42,1-3,2.72-3,5.08-3,6.81.07,6.76-.69,4.51,6.1-3.26,9.82-9,18.37-15.48,26.24a78.19,78.19,0,0,1-33,23.28,89,89,0,0,1-45.94,4.58,79.65,79.65,0,0,1-33.63-13.32c-20.36-14.14-32.65-33.4-35.12-58.45-2.27-23.11,3.47-43.93,18.74-61.49,14.47-16.63,33-26.14,55.1-28.41a85.23,85.23,0,0,1,59.22,15.23c10.47,7.27,18.16,16.63,24.31,27.53,1.7,3,3.83,5.76,4.75,9.2.46,1.77.31,2.62-1.7,2.44a2.51,2.51,0,0,0-.67,0c-5,.9-7.7-.89-10.19-5.78-11.18-21.92-29.67-34.51-53.66-38.88-18-3.27-34.84.13-50.77,9.24-9.64,5.51-16.9,13.14-23.58,21.79-9.09,11.78-12.68,25.29-13,39.63-.31,13.25,2.82,26.07,10.19,37.27,5.8,8.81,12.68,16.89,21.61,22.87,1.75,1.17,3.78,3.07,5.72,2.2,2.13-1,.82-3.66,1-5.58S126.85,560.54,126.85,558.08Z" transform="translate(-65.69 -413.51)"/><path class="cls-5" d="M239.52,490.59c5.38.08,4.49-.65,4.59,4.73,0,.46,0,.91,0,1.36,0,4.5,0,4.5,4.45,4.52a12.5,12.5,0,0,0,2,0c3.48-.6,4.69.7,4.41,4.3-.39,5.05.63,4.33-4.66,4.37-5.79,0-5.79,0-5.79,5.76a15.28,15.28,0,0,0,0,2c.28,2.1-.63,2.66-2.69,2.67-6.6,0-6.73.14-6.63-6.41,0-3-1.16-4.14-4-3.81a8.68,8.68,0,0,1-1,0c-6.12,0-6,0-5.92-6.16,0-1.87.53-2.5,2.48-2.56,7.86-.23,7.86-.3,8.07-8.23C234.91,490.59,234.91,490.59,239.52,490.59Z" transform="translate(-65.69 -413.51)"/></svg>