<svg id="Layer_1" data-name="Layer 1" xmlns="http://www.w3.org/2000/svg" viewBox="0 0 420.63 189.43"><defs><style>.cls-1{fill:#f1f2f2;}.cls-2{fill:#090b0c;}.cls-3{fill:#050505;}.cls-4{fill:#060606;}.cls-5{fill:#070707;}.cls-6{fill:#07090a;}.cls-7{fill:#080808;}.cls-8{fill:#040404;}.cls-9{fill:#0a0a0a;}.cls-10{fill:#090909;}.cls-11{fill:#5c8eb8;}.cls-12{fill:#dcdede;}.cls-13{fill:#5a8cb6;}</style></defs><path class="cls-1" d="M163.28,602.9c-13.81-.4-27.08-2.78-39.95-8.31-11-4.72-20.33-11.62-29.06-19.33-6-5.33-10.67-12.14-15-19A82.1,82.1,0,0,1,67.48,526.7c-1.91-10.8-2.53-21.53-.66-32.45,1.59-9.27,3.63-18.39,8.26-26.58s9.66-16.17,16.27-23.08A97.14,97.14,0,0,1,143,415.94c8.5-1.75,17.16-3.07,25.82-2.1,15.75,1.78,31,5.33,44.77,13.79,7.93,4.86,14.53,11.09,21.17,17.51,8.67,8.36,14.32,18.35,19,29.15,1.56,3.59,1.72,7.4,2.38,11.14.38,2.19,1.24,3.56,3.6,3.67,2.15.1,3.48,2.79,5.15,2.5s2.05-2.93,3.74-4.09a12.93,12.93,0,0,1,10.56-2.3,3.81,3.81,0,0,0,2.29.05c4.43-1.61,8.85-1.12,13.26.14a7.16,7.16,0,0,0,4-.23,22.06,22.06,0,0,1,15.14,1.1,4,4,0,0,0,3.49-.26,12.49,12.49,0,0,1,11.94.76,3.06,3.06,0,0,0,3.71,0,11.41,11.41,0,0,1,9.39-1.52,3.66,3.66,0,0,0,3.92-1.06c7.3-6.62,15.68-9.44,25.45-6.82,3.24.87,6.1-.51,9-1.27,5.11-1.31,12.3,1.34,14.44,6.58,1.1,2.72,3,3,5.39,2.4,4.25-1.09,8.44-1.3,12.48.82a3.29,3.29,0,0,0,2.63.06,32.07,32.07,0,0,1,12.63-1.72c1.52.14,2.11-.59,2.69-1.9a11.9,11.9,0,0,1,12.08-7.53c5.71.2,10.22,2.7,12,8.55.71,2.3,1.95,2.06,3.83,1.61,14.33-3.41,28.14,8,27.29,22.62a49.36,49.36,0,0,1-2.66,13.23c-1.94,5.59-6.93,8.07-12.35,9.37a25.59,25.59,0,0,1-18.06-1.9,3,3,0,0,0-3.15.17,14,14,0,0,1-11,1.31,10.82,10.82,0,0,0-6.25,0c-8.82,2.52-17,1.77-23.71-5.14-1.14-1.17-1.7-.76-2.6.35-4.08,5.07-9.22,6.91-15.53,4.67a6,6,0,0,0-4,.26,9.31,9.31,0,0,1-5.67.26,15.09,15.09,0,0,0-9.51.16c-6.4,2-12.49,0-18.51-1.82-1.73-.53-2.41-.53-3.37,1.13-7.08,12.32-23.41,13.12-32.95,7.59-1-.55-2.22-1.24-2.53-2.15-2.07-6-8.67-4-12.33-7.13-.63-.54-1.48.28-2.14.65-4.27,2.42-8.65,2.55-12.82.07a3.66,3.66,0,0,0-4.29,0c-7.23,4.11-15.41,1.13-18.4-6.73-.51-1.35-1.06-1.83-2.47-1.19a32.25,32.25,0,0,1-3.21,1c-1.18.39-2.1,1.15-1.73,2.49,1.73,6.25-1.06,11.78-3.06,17.28a80.71,80.71,0,0,1-13.53,24c-12.76,15.41-28.27,27-47.66,32.7C183.24,601,173.44,603.3,163.28,602.9Zm22.39-80.46a31.93,31.93,0,0,1,4.11-3.68c6.17-3.79,9.12-9.87,11.51-16.22,2.56-6.81,1.45-14,1.15-21a14.64,14.64,0,0,0-1-4.87,44.49,44.49,0,0,0-11.18-16.23c-10-9.28-21.95-11.06-34.52-9-12.74,2.06-21.78,9.88-27.39,21.39-3.55,7.3-5,15.26-3.39,23.19,2.1,10.17,6.92,19.07,15.59,25.36,1.23.89,1,1.53,0,1.92-1.94.84-3.06,2.61-4.7,3.8-6.43,4.68-9.72,11.3-11.29,19-1.17,5.71-.29,11.45-.61,17.17-.06,1,.5,2.32-.35,2.81-1.08.63-2-.52-2.93-1.13-9.65-6.49-16.47-15.62-22.14-25.4s-7.79-20.84-7.5-32.06c.34-12.87,3.52-25,11.16-35.86,6-8.53,12.74-16,21.78-21.63,15.76-9.75,32.71-13.28,50.78-10.22,22.36,3.78,40.3,15.06,50.76,35.46,4,7.73,8.26,10.49,16.36,9.39,4.26-.57,4.7-.56,3.24-4.51a71.92,71.92,0,0,0-8.38-16.22c-6.5-9.43-13.79-17.84-23.42-24.34-15.72-10.59-32.86-15.9-51.78-15.56-27.41.49-50,11.51-67.27,32.44-12.45,15.05-18,33-18.52,52.52A56.91,56.91,0,0,0,77,520.38c3.24,18.3,10.5,34.27,24.11,47.33,16.37,15.71,35.63,24.12,58.3,25.07,20.79.86,39.49-5.15,56.36-17,7.13-5,12.9-11.49,18.07-18.53,6.09-8.28,10.93-17.13,13.4-27.16.92-3.74.47-4.34-3.47-4.38-2.71,0-5.43.12-8.14,0-2.54-.15-3.81.81-4.49,3.31-4.18,15.27-13.58,26.78-26.23,35.9-.53.38-1.1,1-1.8.61s-.37-1.2-.38-1.82c0-5.76.21-11.53-.07-17.27a25.27,25.27,0,0,0-8.5-17.38A58.88,58.88,0,0,0,185.67,522.44Zm93.94-24.63c-.73-2.14-1.81-3.49-4-2.89-2,.53-1.92,2.2-1.91,3.83,0,6,0,12,0,17.94,0,2,.34,3.91,2.59,4s3.18-1.68,3.15-3.92c-.06-3.72-.05-7.45,0-11.17,0-4,2.05-6.05,6-6.11,3.69-.06,5.15,1.47,5.26,5.8.1,3.94,0,7.89,0,11.84,0,1.93.81,3.56,2.78,3.58,2.13,0,3-1.57,3-3.7-.05-3.6,0-7.22,0-10.83,0-4.34,2.06-6.67,5.81-6.69,3.47,0,4.91,1.85,4.94,6.51,0,3.83.05,7.67,0,11.5,0,2.44,1.89,3,3.49,3.18a2.52,2.52,0,0,0,2.75-2.75c0-5.41.23-10.85-.2-16.23s-3.2-7.22-8.57-7.39c-3.91-.13-6.4,2-8.7,4.75C291.43,492.91,285.94,492.48,279.61,497.81Zm57.09,20.86c-.15,4.68-1.22,5.8-5.3,6.32a10.73,10.73,0,0,1-5.89-.71c-1.9-.84-3.63-.84-4.39,1.37-.85,2.46.92,3.33,2.85,4,2.52.9,5.12.73,7.69.63,6.68-.24,10.79-4.46,10.86-11.17s0-13.53,0-20.3c0-2.08-.11-4-2.8-4s-2.71,2-2.76,4c-.11,4.28.51,8.59-.34,12.81-.65,3.2-3,4.7-6.2,4.38s-4.89-2.08-4.93-5.61c0-4.17,0-8.34,0-12.52a2.75,2.75,0,0,0-2.84-3.07c-2-.05-2.85,1.07-2.85,3,0,5.08-.15,10.16.07,15.22.23,5.24,3.95,8.24,9.21,8.07A15,15,0,0,0,336.7,518.67Zm129.09-9c2.37,0,4.75,0,7.12,0,2.76,0,3.84-1.27,3.59-4A12.93,12.93,0,0,0,460,494.77a13.15,13.15,0,0,0-8.82,11.67c-.49,6,2,10.91,6.84,13.18,5.29,2.46,10.5,1.9,15.44-1.08a2.43,2.43,0,0,0,1.07-3.47c-.75-1.49-2-1.28-3.2-1-1.51.41-3,1.09-4.46,1.52a7.89,7.89,0,0,1-8.88-3.23c-.42-.64-1-1.31-.68-2.17s1.35-.57,2.07-.59C461.49,509.6,463.64,509.64,465.79,509.63ZM347.89,504c-.17,6.93,2.83,12.36,9.71,15.35a19.19,19.19,0,0,0,16,.17c1.46-.65,2.55-1.67,1.9-3.4a3,3,0,0,0-3.83-1.91c-.76.17-1.46.56-2.21.79-6.23,1.88-12.39-1.12-14.09-7-1.37-4.72-1-9.3,2.64-12.87s8.27-3.78,12.87-2c2.1.81,3.54.48,4.44-1.45,1-2.11-.57-3.12-2.16-3.84C363.13,483.25,347.42,489.64,347.89,504ZM239.76,523.06a33,33,0,0,1,3.72,0c2.91.34,4-.82,4-3.78,0-6.47.07-6.57,6.55-6.58,2.83,0,3.92-1.15,3.7-3.86-.08-.89,0-1.8,0-2.7-.06-9.21.9-7.74-7.66-7.71-2.45,0-3.23-.47-3.17-3.09.16-7.64,0-7.65-7.72-7.65-7.2,0-7.4,0-7.12,7.18.12,3.21-.93,3.85-3.89,3.75-8.12-.29-6.48.17-6.54,6.46-.08,7.71,0,7.82,7.73,7.69,2.43,0,3.26.42,3.19,3.07C232.34,523.05,232.49,523.06,239.76,523.06Zm185.7-28.72a12.22,12.22,0,0,0-7.6,1.68c-6.2,3.89-7.94,13.25-3.67,19.77,3.57,5.45,13.58,7.18,19.1,3.35,1.42-1,2-2.3,1.21-3.75-1.07-1.88-2.64-1.47-4.36-.58-3.86,2-8.22,1.34-10.49-1.41a9.62,9.62,0,0,1-.18-11.29c2.25-2.81,6.53-3.44,10.47-1.51,1.44.7,3.06,1.58,4.07-.32s.38-3.47-1.53-4.57A12.68,12.68,0,0,0,425.46,494.34Zm20.17,8.39c0-4.51,0-9,0-13.54,0-2.09-.05-4.32-3-4.32s-3.05,2.08-3.05,4.25c0,9,0,18.06,0,27.09,0,2.25.44,4.44,3,4.45s3.12-2.1,3.09-4.38C445.59,511.76,445.63,507.25,445.63,502.73Zm-47.42,9h0c0-1.58,0-3.16,0-4.74,0-6,2.37-8.05,8.26-7.31,2,.24,3.56-.46,3.69-2.46s-1.26-2.85-3.28-3a11.85,11.85,0,0,0-6.92,2.15c-1.08.65-1.49,1-2.14-.43s-1.94-1.35-3.24-1.09a2.21,2.21,0,0,0-1.91,2.41q0,10.31,0,20.62a2.59,2.59,0,0,0,2.8,2.73,2.63,2.63,0,0,0,2.71-2.83Zm-11.62-4.07c0-3,0-6.07,0-9.1,0-2.12-.6-3.89-3.16-3.8-2.34.08-2.86,1.79-2.87,3.75q0,9.1,0,18.2c0,2.15.86,4,3.16,3.9,2-.08,2.91-1.78,2.88-3.85C386.56,513.78,386.59,510.74,386.59,507.71Zm-3-16.37c1.56-.13,3.06-.32,3-2.6s-.93-3.1-3-3.11-3.11.83-3.14,3S381.77,491.28,383.62,491.34Z" transform="translate(-65.69 -413.51)"/><path class="cls-2" d="M185.67,522.44a58.88,58.88,0,0,1,8.51,6.6,25.27,25.27,0,0,1,8.5,17.38c.28,5.74,0,11.51.07,17.27,0,.62-.38,1.44.38,1.82s1.27-.23,1.8-.61c12.65-9.12,22-20.63,26.23-35.9.68-2.5,2-3.46,4.49-3.31,2.71.16,5.43,0,8.14,0,3.94,0,4.39.64,3.47,4.38-2.47,10-7.31,18.88-13.4,27.16-5.17,7-10.94,13.53-18.07,18.53-16.87,11.83-35.57,17.84-56.36,17-22.67-.95-41.93-9.36-58.3-25.07-13.61-13.06-20.87-29-24.11-47.33a56.91,56.91,0,0,1-1.2-11.52c.48-19.5,6.07-37.47,18.52-52.52,17.3-20.93,39.86-31.95,67.27-32.44,18.92-.34,36.06,5,51.78,15.56,9.63,6.5,16.92,14.91,23.42,24.34A71.92,71.92,0,0,1,245.19,480c1.46,4,1,3.94-3.24,4.51-8.1,1.1-12.4-1.66-16.36-9.39-10.46-20.4-28.4-31.68-50.76-35.46-18.07-3.06-35,.47-50.78,10.22-9,5.59-15.76,13.1-21.78,21.63-7.64,10.83-10.82,23-11.16,35.86-.29,11.22,1.84,22.31,7.5,32.06s12.49,18.91,22.14,25.4c.92.61,1.85,1.76,2.93,1.13.85-.49.29-1.84.35-2.81.32-5.72-.56-11.46.61-17.17,1.57-7.66,4.86-14.28,11.29-19,1.64-1.19,2.76-3,4.7-3.8.91-.39,1.18-1,0-1.92C131.91,515,127.09,506.13,125,496c-1.64-7.93-.16-15.89,3.39-23.19,5.61-11.51,14.65-19.33,27.39-21.39,12.57-2,24.5-.24,34.52,9a44.49,44.49,0,0,1,11.18,16.23,14.64,14.64,0,0,1,1,4.87c.3,7,1.41,14.21-1.15,21-2.39,6.35-5.34,12.43-11.51,16.22A31.93,31.93,0,0,0,185.67,522.44Zm-58.82,35.64c0,2.46.14,4.39,0,6.3s1.13,4.63-1,5.58c-1.94.87-4-1-5.72-2.2-8.93-6-15.81-14.06-21.61-22.87-7.37-11.2-10.5-24-10.19-37.27.33-14.34,3.92-27.85,13-39.63,6.68-8.65,13.94-16.28,23.58-21.79,15.93-9.11,32.82-12.51,50.77-9.24,24,4.37,42.48,17,53.66,38.88,2.49,4.89,5.17,6.68,10.19,5.78a2.51,2.51,0,0,1,.67,0c2,.18,2.16-.67,1.7-2.44-.92-3.44-3.05-6.19-4.75-9.2-6.15-10.9-13.84-20.26-24.31-27.53a85.23,85.23,0,0,0-59.22-15.23C131.51,429.49,113,439,98.49,455.63c-15.27,17.56-21,38.38-18.74,61.49,2.47,25,14.76,44.31,35.12,58.45a79.65,79.65,0,0,0,33.63,13.32,89,89,0,0,0,45.94-4.58,78.19,78.19,0,0,0,33-23.28c6.51-7.87,12.22-16.42,15.48-26.24,2.25-6.79,2.3-6-4.51-6.1-2.36,0-4.1,0-5.08,3-5.28,16.11-15.52,28.41-29.82,37.42-.82.51-1.56,1.56-2.69,1s-.88-2-.88-3c0-6.21.08-12.42-.05-18.63A21.87,21.87,0,0,0,191.23,531c-2.78-2.22-5.49-4.53-8.22-6.83-1.31-1.1-2-2.65-.21-3.56,3.26-1.62,5.2-4.65,8-6.73a21.79,21.79,0,0,0,8.2-13.81c2.24-12.47,1.85-24.42-7.95-34.78s-21.44-13.4-34.6-11.1c-9.36,1.63-17.37,6.48-22.62,14.94-5,8-7.89,16.65-6,25.92,2.2,10.84,7.52,20.12,17.49,26,1.28.75,1.49,1.52.3,2.2-3.46,2-6.05,5-9.16,7.35-5.44,4.08-7.24,9.92-8.94,15.94C126.36,550.49,127,554.58,126.85,558.08Z" transform="translate(-65.69 -413.51)"/><path class="cls-3" d="M279.61,497.81c6.33-5.33,11.82-4.9,16.3,1.23,2.3-2.7,4.79-4.88,8.7-4.75,5.37.17,8.14,2.11,8.57,7.39s.17,10.82.2,16.23a2.52,2.52,0,0,1-2.75,2.75c-1.6-.18-3.53-.74-3.49-3.18.05-3.83,0-7.67,0-11.5,0-4.66-1.47-6.52-4.94-6.51-3.75,0-5.79,2.35-5.81,6.69,0,3.61-.05,7.23,0,10.83,0,2.13-.85,3.72-3,3.7-2,0-2.78-1.65-2.78-3.58,0-4,.08-7.9,0-11.84-.11-4.33-1.57-5.86-5.26-5.8-3.93.06-5.94,2.08-6,6.11,0,3.72-.05,7.45,0,11.17,0,2.24-.84,4-3.15,3.92s-2.61-2-2.59-4c.07-6,0-12,0-17.94,0-1.63-.07-3.3,1.91-3.83C277.8,494.32,278.88,495.67,279.61,497.81Z" transform="translate(-65.69 -413.51)"/><path class="cls-3" d="M336.7,518.67a15,15,0,0,1-7.61,2.41c-5.26.17-9-2.83-9.21-8.07-.22-5.06-.06-10.14-.07-15.22,0-1.91.9-3,2.85-3a2.75,2.75,0,0,1,2.84,3.07c0,4.18,0,8.35,0,12.52,0,3.53,1.63,5.3,4.93,5.61s5.55-1.18,6.2-4.38c.85-4.22.23-8.53.34-12.81.05-2-.06-4,2.76-4s2.82,1.93,2.8,4c-.05,6.77,0,13.53,0,20.3s-4.18,10.93-10.86,11.17c-2.57.1-5.17.27-7.69-.63-1.93-.69-3.7-1.56-2.85-4,.76-2.21,2.49-2.21,4.39-1.37a10.73,10.73,0,0,0,5.89.71C335.48,524.47,336.55,523.35,336.7,518.67Z" transform="translate(-65.69 -413.51)"/><path class="cls-4" d="M465.79,509.63c-2.15,0-4.3,0-6.45,0-.72,0-1.66-.39-2.07.59s.26,1.53.68,2.17a7.89,7.89,0,0,0,8.88,3.23c1.51-.43,2.95-1.11,4.46-1.52,1.2-.33,2.45-.54,3.2,1a2.43,2.43,0,0,1-1.07,3.47c-4.94,3-10.15,3.54-15.44,1.08-4.88-2.27-7.33-7.22-6.84-13.18A13.15,13.15,0,0,1,460,494.77a12.93,12.93,0,0,1,16.54,10.85c.25,2.75-.83,4.05-3.59,4C470.54,509.61,468.16,509.63,465.79,509.63ZM463.46,505c1.68,0,3.37.07,5.05,0,1.32-.06,1.87-.49,1-2-2.39-4.19-8.48-4.92-11.35-1.23-.6.78-1.41,1.66-.87,2.72s1.61.43,2.44.49C461,505.07,462.22,505,463.46,505Z" transform="translate(-65.69 -413.51)"/><path class="cls-5" d="M347.89,504c-.47-14.31,15.24-20.7,25.27-16.11,1.59.72,3.14,1.73,2.16,3.84-.9,1.93-2.34,2.26-4.44,1.45-4.6-1.78-9.2-1.58-12.87,2s-4,8.15-2.64,12.87c1.7,5.83,7.86,8.83,14.09,7,.75-.23,1.45-.62,2.21-.79a3,3,0,0,1,3.83,1.91c.65,1.73-.44,2.75-1.9,3.4a19.19,19.19,0,0,1-16-.17C350.72,516.31,347.72,510.88,347.89,504Z" transform="translate(-65.69 -413.51)"/><path class="cls-6" d="M239.76,523.06c-7.27,0-7.42,0-7.24-7.2.07-2.65-.76-3.11-3.19-3.07-7.75.13-7.81,0-7.73-7.69.06-6.29-1.58-6.75,6.54-6.46,3,.1,4-.54,3.89-3.75-.28-7.17-.08-7.18,7.12-7.18,7.75,0,7.88,0,7.72,7.65-.06,2.62.72,3.1,3.17,3.09,8.56,0,7.6-1.5,7.66,7.71,0,.9-.06,1.81,0,2.7.22,2.71-.87,3.85-3.7,3.86-6.48,0-6.59.11-6.55,6.58,0,3-1.08,4.12-4,3.78A33,33,0,0,0,239.76,523.06Zm-.24-32.47c-4.61,0-4.61,0-4.68,2.56-.21,7.93-.21,8-8.07,8.23-2,.06-2.45.69-2.48,2.56-.12,6.16-.2,6.16,5.92,6.16a8.68,8.68,0,0,0,1,0c2.86-.33,4.06.77,4,3.81-.1,6.55,0,6.46,6.63,6.41,2.06,0,3-.57,2.69-2.67a15.28,15.28,0,0,1,0-2c0-5.75,0-5.72,5.79-5.76,5.29,0,4.27.68,4.66-4.37.28-3.6-.93-4.9-4.41-4.3a12.5,12.5,0,0,1-2,0c-4.43,0-4.43,0-4.45-4.52,0-.45,0-.9,0-1.36C244,489.94,244.9,490.67,239.52,490.59Z" transform="translate(-65.69 -413.51)"/><path class="cls-7" d="M425.46,494.34a12.68,12.68,0,0,1,7,1.37c1.91,1.1,2.49,2.76,1.53,4.57s-2.63,1-4.07.32c-3.94-1.93-8.22-1.3-10.47,1.51a9.62,9.62,0,0,0,.18,11.29c2.27,2.75,6.63,3.42,10.49,1.41,1.72-.89,3.29-1.3,4.36.58.82,1.45.21,2.76-1.21,3.75-5.52,3.83-15.53,2.1-19.1-3.35-4.27-6.52-2.53-15.88,3.67-19.77A12.22,12.22,0,0,1,425.46,494.34Z" transform="translate(-65.69 -413.51)"/><path class="cls-7" d="M445.63,502.73c0,4.52,0,9,0,13.55,0,2.28-.64,4.38-3.09,4.38s-3-2.2-3-4.45c.05-9,0-18.06,0-27.09,0-2.17.18-4.26,3.05-4.25s3,2.23,3,4.32C445.65,493.7,445.63,498.22,445.63,502.73Z" transform="translate(-65.69 -413.51)"/><path class="cls-8" d="M398.21,511.78v6.08a2.63,2.63,0,0,1-2.71,2.83,2.59,2.59,0,0,1-2.8-2.73q0-10.31,0-20.62a2.21,2.21,0,0,1,1.91-2.41c1.3-.26,2.66-.2,3.24,1.09s1.06,1.08,2.14.43a11.85,11.85,0,0,1,6.92-2.15c2,.12,3.42,1,3.28,3s-1.73,2.7-3.69,2.46c-5.89-.74-8.22,1.32-8.26,7.31,0,1.58,0,3.16,0,4.74Z" transform="translate(-65.69 -413.51)"/><path class="cls-9" d="M386.59,507.71c0,3,0,6.07,0,9.1,0,2.07-.85,3.77-2.88,3.85-2.3.09-3.16-1.75-3.16-3.9q0-9.11,0-18.2c0-2,.53-3.67,2.87-3.75,2.56-.09,3.14,1.68,3.16,3.8C386.6,501.64,386.59,504.68,386.59,507.71Z" transform="translate(-65.69 -413.51)"/><path class="cls-10" d="M383.62,491.34c-1.85-.06-3.16-.49-3.14-2.69s1.07-3,3.14-3,3,1,3,3.11S385.18,491.21,383.62,491.34Z" transform="translate(-65.69 -413.51)"/><path class="cls-11" d="M126.85,558.08c.19-3.5-.49-7.59.64-11.58,1.7-6,3.5-11.86,8.94-15.94,3.11-2.34,5.7-5.37,9.16-7.35,1.19-.68,1-1.45-.3-2.2-10-5.84-15.29-15.12-17.49-26-1.89-9.27,1-17.95,6-25.92,5.25-8.46,13.26-13.31,22.62-14.94,13.16-2.3,24.81.75,34.6,11.1s10.19,22.31,7.95,34.78a21.79,21.79,0,0,1-8.2,13.81c-2.77,2.08-4.71,5.11-8,6.73-1.82.91-1.1,2.46.21,3.56,2.73,2.3,5.44,4.61,8.22,6.83a21.87,21.87,0,0,1,8.66,17.39c.13,6.21,0,12.42.05,18.63,0,1.08-.38,2.39.88,3s1.87-.46,2.69-1c14.3-9,24.54-21.31,29.82-37.42,1-3,2.72-3,5.08-3,6.81.07,6.76-.69,4.51,6.1-3.26,9.82-9,18.37-15.48,26.24a78.19,78.19,0,0,1-33,23.28,89,89,0,0,1-45.94,4.58,79.65,79.65,0,0,1-33.63-13.32c-20.36-14.14-32.65-33.4-35.12-58.45-2.27-23.11,3.47-43.93,18.74-61.49,14.47-16.63,33-26.14,55.1-28.41a85.23,85.23,0,0,1,59.22,15.23c10.47,7.27,18.16,16.63,24.31,27.53,1.7,3,3.83,5.76,4.75,9.2.46,1.77.31,2.62-1.7,2.44a2.51,2.51,0,0,0-.67,0c-5,.9-7.7-.89-10.19-5.78-11.18-21.92-29.67-34.51-53.66-38.88-18-3.27-34.84.13-50.77,9.24-9.64,5.51-16.9,13.14-23.58,21.79-9.09,11.78-12.68,25.29-13,39.63-.31,13.25,2.82,26.07,10.19,37.27,5.8,8.81,12.68,16.89,21.61,22.87,1.75,1.17,3.78,3.07,5.72,2.2,2.13-1,.82-3.66,1-5.58S126.85,560.54,126.85,558.08Z" transform="translate(-65.69 -413.51)"/><path class="cls-12" d="M463.46,505c-1.24,0-2.48.07-3.71,0-.83-.06-1.94.5-2.44-.49s.27-1.94.87-2.72c2.87-3.69,9-3,11.35,1.23.85,1.48.3,1.91-1,2C466.83,505.06,465.14,505,463.46,505Z" transform="translate(-65.69 -413.51)"/><path class="cls-13" d="M239.52,490.59c5.38.08,4.49-.65,4.59,4.73,0,.46,0,.91,0,1.36,0,4.5,0,4.5,4.45,4.52a12.5,12.5,0,0,0,2,0c3.48-.6,4.69.7,4.41,4.3-.39,5.05.63,4.33-4.66,4.37-5.79,0-5.79,0-5.79,5.76a15.28,15.28,0,0,0,0,2c.28,2.1-.63,2.66-2.69,2.67-6.6,0-6.73.14-6.63-6.41,0-3-1.16-4.14-4-3.81a8.68,8.68,0,0,1-1,0c-6.12,0-6,0-5.92-6.16,0-1.87.53-2.5,2.48-2.56,7.86-.23,7.86-.3,8.07-8.23C234.91,490.59,234.91,490.59,239.52,490.59Z" transform="translate(-65.69 -413.51)"/></svg>