<svg id="Layer_1" data-name="Layer 1" xmlns="http://www.w3.org/2000/svg" viewBox="0 0 220.75 65.67"><defs><style>.cls-1{fill:#f1f2f2;}.cls-2{fill:#050505;}.cls-3{fill:#060606;}.cls-4{fill:#070707;}.cls-5{fill:#080808;}.cls-6{fill:#040404;}.cls-7{fill:#0a0a0a;}.cls-8{fill:#090909;}.cls-9{fill:#dcdede;}</style></defs><path class="cls-1" d="M459,485c-1.88.45-3.12.69-3.83-1.61-1.8-5.85-6.31-8.35-12-8.55a11.9,11.9,0,0,0-12.08,7.53c-.58,1.31-1.17,2-2.69,1.9A32.07,32.07,0,0,0,415.75,486a3.29,3.29,0,0,1-2.63-.06c-4-2.12-8.23-1.91-12.48-.82-2.42.61-4.29.32-5.39-2.4-2.14-5.24-9.33-7.89-14.44-6.58-2.94.76-5.8,2.14-9,1.27-9.77-2.62-18.15.2-25.45,6.82a3.66,3.66,0,0,1-3.92,1.06,11.41,11.41,0,0,0-9.39,1.52,3.06,3.06,0,0,1-3.71,0,12.49,12.49,0,0,0-11.94-.76,4,4,0,0,1-3.49.26,22.06,22.06,0,0,0-15.14-1.1,7.16,7.16,0,0,1-4,.23c-4.41-1.26-8.83-1.75-13.26-.14a3.81,3.81,0,0,1-2.29-.05,12.93,12.93,0,0,0-10.56,2.3,6.56,6.56,0,0,0-2.91,5c-.15,2.33-.17,5-.13,6.57.17,6.12-.13,5.59,0,11.71.09,3.36.05,7.61.29,11,1.88,6.79,10.8,10.41,17,6.91a3.66,3.66,0,0,1,4.29,0c4.17,2.48,8.55,2.35,12.82-.07.66-.37,1.51-1.19,2.14-.65,3.66,3.15,10.26,1.14,12.33,7.13.31.91,1.57,1.6,2.53,2.15,9.54,5.53,25.87,4.73,32.95-7.59,1-1.66,1.64-1.66,3.37-1.13,6,1.83,12.11,3.78,18.51,1.82a15.08,15.08,0,0,1,9.51-.16,9.31,9.31,0,0,0,5.67-.26,6,6,0,0,1,4-.26c6.31,2.24,11.45.4,15.53-4.67.9-1.11,1.46-1.52,2.6-.35,6.76,6.91,14.89,7.66,23.71,5.14a10.82,10.82,0,0,1,6.25,0,14,14,0,0,0,11-1.31,3,3,0,0,1,3.15-.17,25.59,25.59,0,0,0,18.06,1.9c5.42-1.3,10.41-3.78,12.35-9.37a49.36,49.36,0,0,0,2.66-13.23C487.14,493,473.33,481.58,459,485ZM313.38,517.91a2.52,2.52,0,0,1-2.75,2.75c-1.6-.18-3.53-.74-3.49-3.18.05-3.83,0-7.67,0-11.5,0-4.66-1.47-6.52-4.94-6.51-3.75,0-5.79,2.35-5.81,6.69,0,3.61-.05,7.23,0,10.83,0,2.13-.85,3.72-3,3.7-2,0-2.78-1.65-2.78-3.58,0-4,.08-7.9,0-11.84-.11-4.33-1.57-5.86-5.26-5.8-3.93.06-5.94,2.08-6,6.11,0,3.72-.05,7.45,0,11.17,0,2.24-.84,4-3.15,3.92s-2.61-2-2.59-4c.07-6,0-12,0-17.94,0-1.63-.07-3.3,1.91-3.83,2.23-.6,3.31.75,4,2.89,6.33-5.33,11.82-4.9,16.3,1.23,2.3-2.7,4.79-4.88,8.7-4.75,5.37.17,8.14,2.11,8.57,7.39S313.35,512.5,313.38,517.91Zm29.17-19.08c-.05,6.77,0,13.53,0,20.3s-4.18,10.93-10.86,11.17c-2.57.1-5.17.27-7.69-.63-1.93-.69-3.7-1.56-2.85-4,.76-2.21,2.49-2.21,4.39-1.37a10.73,10.73,0,0,0,5.89.71c4.08-.52,5.15-1.64,5.3-6.32a15,15,0,0,1-7.61,2.41c-5.26.17-9-2.83-9.21-8.07-.22-5.06-.06-10.14-.07-15.22,0-1.91.9-3,2.85-3a2.75,2.75,0,0,1,2.84,3.07c0,4.18,0,8.35,0,12.52,0,3.53,1.63,5.3,4.93,5.61s5.55-1.18,6.2-4.38c.85-4.22.23-8.53.34-12.81.05-2-.06-4,2.76-4S342.57,496.75,342.55,498.83Zm31.05,20.64a19.19,19.19,0,0,1-16-.17c-6.88-3-9.88-8.42-9.71-15.35-.47-14.31,15.24-20.7,25.27-16.11,1.59.72,3.14,1.73,2.16,3.84-.9,1.93-2.34,2.26-4.44,1.45-4.6-1.78-9.2-1.58-12.87,2s-4,8.15-2.64,12.87c1.7,5.83,7.86,8.83,14.09,7,.75-.23,1.45-.62,2.21-.79a3,3,0,0,1,3.83,1.91C376.15,517.8,375.06,518.82,373.6,519.47Zm10.12,1.19c-2.3.09-3.16-1.75-3.16-3.9q0-9.11,0-18.2c0-2,.53-3.67,2.87-3.75,2.56-.09,3.14,1.68,3.16,3.8,0,3,0,6.07,0,9.1s0,6.07,0,9.1C386.63,518.88,385.75,520.58,383.72,520.66Zm-.1-29.32c-1.85-.06-3.16-.49-3.14-2.69s1.07-3,3.14-3,3,1,3,3.11S385.18,491.21,383.62,491.34Zm22.88,8.39c-5.89-.74-8.22,1.32-8.26,7.31,0,1.58,0,3.16,0,4.74h0v6.08a2.63,2.63,0,0,1-2.71,2.83,2.59,2.59,0,0,1-2.8-2.73q0-10.31,0-20.62a2.21,2.21,0,0,1,1.91-2.41c1.3-.26,2.66-.2,3.24,1.09s1.06,1.08,2.14.43a11.85,11.85,0,0,1,6.92-2.15c2,.12,3.42,1,3.28,3S408.46,500,406.5,499.73Zm26.79,19.41c-5.52,3.83-15.53,2.1-19.1-3.35-4.27-6.52-2.53-15.88,3.67-19.77a12.22,12.22,0,0,1,7.6-1.68,12.68,12.68,0,0,1,7,1.37c1.91,1.1,2.49,2.76,1.53,4.57s-2.63,1-4.07.32c-3.94-1.93-8.22-1.3-10.47,1.51a9.62,9.62,0,0,0,.18,11.29c2.27,2.75,6.63,3.42,10.49,1.41,1.72-.89,3.29-1.3,4.36.58C435.32,516.84,434.71,518.15,433.29,519.14Zm9.27,1.52c-2.54,0-3-2.2-3-4.45.05-9,0-18.06,0-27.09,0-2.17.18-4.26,3.05-4.25s3,2.23,3,4.32c0,4.51,0,9,0,13.54s0,9,0,13.55C445.68,518.56,445,520.66,442.56,520.66Zm30.35-11c-2.37,0-4.75,0-7.12,0-2.15,0-4.3,0-6.45,0-.72,0-1.66-.39-2.07.59s.26,1.53.68,2.17a7.89,7.89,0,0,0,8.88,3.23c1.51-.43,2.95-1.11,4.46-1.52,1.19-.33,2.45-.54,3.2,1a2.43,2.43,0,0,1-1.07,3.47c-4.94,3-10.15,3.54-15.44,1.08-4.88-2.27-7.33-7.22-6.84-13.18A13.15,13.15,0,0,1,460,494.77a12.93,12.93,0,0,1,16.54,10.85C476.75,508.37,475.67,509.67,472.91,509.64Z" transform="translate(-265.57 -474.82)"/><path class="cls-2" d="M279.61,497.81c6.33-5.33,11.82-4.9,16.3,1.23,2.3-2.7,4.79-4.88,8.7-4.75,5.37.17,8.14,2.11,8.57,7.39s.17,10.82.2,16.23a2.52,2.52,0,0,1-2.75,2.75c-1.6-.18-3.53-.74-3.49-3.18.05-3.83,0-7.67,0-11.5,0-4.66-1.47-6.52-4.94-6.51-3.75,0-5.79,2.35-5.81,6.69,0,3.61-.05,7.23,0,10.83,0,2.13-.85,3.72-3,3.7-2,0-2.78-1.65-2.78-3.58,0-4,.08-7.9,0-11.84-.11-4.33-1.57-5.86-5.26-5.8-3.93.06-5.94,2.08-6,6.11,0,3.72-.05,7.45,0,11.17,0,2.24-.84,4-3.15,3.92s-2.61-2-2.59-4c.07-6,0-12,0-17.94,0-1.63-.07-3.3,1.91-3.83C277.8,494.32,278.88,495.67,279.61,497.81Z" transform="translate(-265.57 -474.82)"/><path class="cls-2" d="M336.7,518.67a15,15,0,0,1-7.61,2.41c-5.26.17-9-2.83-9.21-8.07-.22-5.06-.06-10.14-.07-15.22,0-1.91.9-3,2.85-3a2.75,2.75,0,0,1,2.84,3.07c0,4.18,0,8.35,0,12.52,0,3.53,1.63,5.3,4.93,5.61s5.55-1.18,6.2-4.38c.85-4.22.23-8.53.34-12.81.05-2-.06-4,2.76-4s2.82,1.93,2.8,4c-.05,6.77,0,13.53,0,20.3s-4.18,10.93-10.86,11.17c-2.57.1-5.17.27-7.69-.63-1.93-.69-3.7-1.56-2.85-4,.76-2.21,2.49-2.21,4.39-1.37a10.73,10.73,0,0,0,5.89.71C335.48,524.47,336.55,523.35,336.7,518.67Z" transform="translate(-265.57 -474.82)"/><path class="cls-3" d="M465.79,509.63c-2.15,0-4.3,0-6.45,0-.72,0-1.66-.39-2.07.59s.26,1.53.68,2.17a7.89,7.89,0,0,0,8.88,3.23c1.51-.43,2.95-1.11,4.46-1.52,1.2-.33,2.45-.54,3.2,1a2.43,2.43,0,0,1-1.07,3.47c-4.94,3-10.15,3.54-15.44,1.08-4.88-2.27-7.33-7.22-6.84-13.18A13.15,13.15,0,0,1,460,494.77a12.93,12.93,0,0,1,16.54,10.85c.25,2.75-.83,4.05-3.59,4C470.54,509.61,468.16,509.63,465.79,509.63ZM463.46,505c1.68,0,3.37.07,5.05,0,1.32-.06,1.87-.49,1-2-2.39-4.19-8.48-4.92-11.35-1.23-.6.78-1.41,1.66-.87,2.72s1.61.43,2.44.49C461,505.07,462.22,505,463.46,505Z" transform="translate(-265.57 -474.82)"/><path class="cls-4" d="M347.89,504c-.47-14.31,15.24-20.7,25.27-16.11,1.59.72,3.14,1.73,2.16,3.84-.9,1.93-2.34,2.26-4.44,1.45-4.6-1.78-9.2-1.58-12.87,2s-4,8.15-2.64,12.87c1.7,5.83,7.86,8.83,14.09,7,.75-.23,1.45-.62,2.21-.79a3,3,0,0,1,3.83,1.91c.65,1.73-.44,2.75-1.9,3.4a19.19,19.19,0,0,1-16-.17C350.72,516.31,347.72,510.88,347.89,504Z" transform="translate(-265.57 -474.82)"/><path class="cls-5" d="M425.46,494.34a12.68,12.68,0,0,1,7,1.37c1.91,1.1,2.49,2.76,1.53,4.57s-2.63,1-4.07.32c-3.94-1.93-8.22-1.3-10.47,1.51a9.62,9.62,0,0,0,.18,11.29c2.27,2.75,6.63,3.42,10.49,1.41,1.72-.89,3.29-1.3,4.36.58.82,1.45.21,2.76-1.21,3.75-5.52,3.83-15.53,2.1-19.1-3.35-4.27-6.52-2.53-15.88,3.67-19.77A12.22,12.22,0,0,1,425.46,494.34Z" transform="translate(-265.57 -474.82)"/><path class="cls-5" d="M445.63,502.73c0,4.52,0,9,0,13.55,0,2.28-.64,4.38-3.09,4.38s-3-2.2-3-4.45c.05-9,0-18.06,0-27.09,0-2.17.18-4.26,3.05-4.25s3,2.23,3,4.32C445.65,493.7,445.63,498.22,445.63,502.73Z" transform="translate(-265.57 -474.82)"/><path class="cls-6" d="M398.21,511.78v6.08a2.63,2.63,0,0,1-2.71,2.83,2.59,2.59,0,0,1-2.8-2.73q0-10.31,0-20.62a2.21,2.21,0,0,1,1.91-2.41c1.3-.26,2.66-.2,3.24,1.09s1.06,1.08,2.14.43a11.85,11.85,0,0,1,6.92-2.15c2,.12,3.42,1,3.28,3s-1.73,2.7-3.69,2.46c-5.89-.74-8.22,1.32-8.26,7.31,0,1.58,0,3.16,0,4.74Z" transform="translate(-265.57 -474.82)"/><path class="cls-7" d="M386.59,507.71c0,3,0,6.07,0,9.1,0,2.07-.85,3.77-2.88,3.85-2.3.09-3.16-1.75-3.16-3.9q0-9.11,0-18.2c0-2,.53-3.67,2.87-3.75,2.56-.09,3.14,1.68,3.16,3.8C386.6,501.64,386.59,504.68,386.59,507.71Z" transform="translate(-265.57 -474.82)"/><path class="cls-8" d="M383.62,491.34c-1.85-.06-3.16-.49-3.14-2.69s1.07-3,3.14-3,3,1,3,3.11S385.18,491.21,383.62,491.34Z" transform="translate(-265.57 -474.82)"/><path class="cls-9" d="M463.46,505c-1.24,0-2.48.07-3.71,0-.83-.06-1.94.5-2.44-.49s.27-1.94.87-2.72c2.87-3.69,9-3,11.35,1.23.85,1.48.3,1.91-1,2C466.83,505.06,465.14,505,463.46,505Z" transform="translate(-265.57 -474.82)"/></svg>