<?xml version="1.0" encoding="UTF-8"?><svg id="Layer_1" xmlns="http://www.w3.org/2000/svg" viewBox="0 0 364 76"><defs><style>.cls-1{fill:#fff;}.cls-2{fill:none;stroke:#000;stroke-linecap:round;stroke-linejoin:round;stroke-width:2px;}</style></defs><path d="M363.96,10.89V55.25c-.96,1.3-1.87,2.65-2.9,3.89-2.17,2.6-4.77,4.88-8.26,5.01-6.75,.24-13.52,.06-20.28,.02-.48,0-.96-.3-1.45-.34-1.12-.09-2.27-.25-3.38-.11-5.94,.73-11.84,1.26-17.71-.57-.97-.3-2.22,0-3.27,.27-5.09,1.29-10.09,1.75-14.96-.87-.63-.34-1.64-.61-2.19-.34-4.99,2.48-10.34,1.98-15.64,2.11-4.81,.12-9.24-1-13.23-3.57-1.46-.94-2.48-.92-4-.06-8.81,4.97-18.05,4.7-27.39,1.78-2.01-.63-3.84-2.53-5.75-2.53-1.94,0-3.83,1.77-5.82,2.56-6.44,2.52-19.38,2.49-26.43,.1-1.31-.44-2.5-1.57-4.15-.39-4.29,3.06-9.16,2.11-13.94,1.73-1.43-.11-2.88-.07-4.32,.02-4.77,.31-9.65,1.37-13.93-1.78-1.47-1.08-2.36-.13-3.53,.49-5.07,2.68-12.7,2.35-17.47-.9-1.28-.87-2.17-1.11-3.54-.37-4.5,2.45-9.37,3.18-14.45,2.88-1.49-.09-2.99-.05-4.48,0-7.1,.2-13.47-1.62-18.66-6.62-1.28-1.23-1.88-.75-2.43,.6-.86,2.13-1.66,4.3-2.67,6.36-2.17,4.4-5.41,7.83-9.91,10.01-.71,.35-1.34,.87-2.01,1.31h-16.95c-4.61-2.22-8.33-5.15-9.74-10.43-.65-2.43-3.51-3.37-5.95-2.48-5.17,1.89-10.34,1.87-15.53,.04-.85-.3-2.08-.67-2.7-.31-3.23,1.91-6.74,1.37-10.2,1.53-3.78,.18-6.73-1.36-9.3-3.92-2.85-2.84-4.18-6.28-4.2-10.21-.05-7.88-.13-15.76,.06-23.64,.05-2.23,.62-4.61,1.59-6.62,2.04-4.26,5.5-7.28,10.46-7.12,8.27,.27,16.58-.99,24.81,.63,.62,.12,1.3-.06,1.95-.07,4.79-.14,9.57-.27,14.36-.43,1.28-.04,2.66,.09,3.8-.34,3.73-1.42,7.59-1.12,11.3-.54,2.15,.34,4.11,2.87,6.12,2.83,2.19-.04,4.24-2.41,6.53-2.86,2.39-.47,3.56-1.28,4.6-3.54C91.12-.77,101.99-.26,108.37,2.2c.88,.34,1.6,1.15,2.33,1.81,.86,.77,1.72,1.57,2.44,2.46,.91,1.12,1.57,.79,2.3-.14,3.33-4.22,7.67-5.6,13.09-5.59,6.71,.01,11.1,2.87,13.72,8.62,.83,1.82,1.81,2.42,3.7,2.39,5.14-.09,10.28-.1,15.42-.01,1.68,.03,2.22-.91,2.85-2.17,1.96-3.97,4.83-7.39,9.27-8.27,4.49-.89,9.23-1.26,13.53,1.38,.72,.44,1.98,.78,2.64,.46,6.29-3.01,13-2.33,19.61-2.21,7.41,.14,13.52,3.27,17.82,9.22,1.76,2.44,3.37,2.65,6.19,2.2,8.09-1.26,16.25-1.67,23.58,3.06,1.48,.95,2.57,1.01,4,0,4.07-2.9,8.69-3.91,13.66-3.7,2.32,.1,4.67-.14,6.97,.07,2.24,.21,3.52-.23,4.56-2.53,1.66-3.65,4.42-6.88,8.49-7.76,7.78-1.68,15.67-1.36,19.89,8.25,.68,1.55,1.51,2.24,3.35,2.16,4.48-.19,8.96-.21,13.44-.11,1.73,.04,2.89-.26,3.4-2.02,3.11-10.82,20.79-12.3,26.86-3.09,.89,1.36,1.65,2.8,2.47,4.21ZM12.03,38.07s.01,0,.02,0c0,3.94-.11,7.87,.04,11.8,.11,3.03,1.42,4.16,4.3,4.21,3.14,.06,4.51-1.13,4.64-4.39,.12-3.11-.14-6.24,.08-9.34,.18-2.59,.62-5.19,1.31-7.69,.53-1.92,2.81-3.27,4.58-3.13,2.2,.18,3.1,1.66,3.34,3.63,.22,1.78,.51,3.56,.55,5.35,.09,3.77-.07,7.55,.06,11.31,.11,3.02,1.41,4.18,4.26,4.25,3.13,.08,4.56-1.13,4.68-4.34,.13-3.44-.08-6.89,.08-10.33,.1-2.1,.4-4.25,.98-6.27,.56-1.93,3.42-3.78,4.92-3.59,1.71,.22,3.06,2.27,3.19,4.94,.05,.98,0,1.97,.01,2.95,.01,4.1-.14,8.21,.09,12.29,.19,3.18,2.11,4.52,5.41,4.33,2.62-.15,4.05-1.55,4.1-4.49,.1-5.9,.14-11.81,0-17.71-.11-4.63-2.72-7.83-7.18-8.74-3.82-.78-7.66-.42-10.95,1.88-1.48,1.04-2.29,.93-3.79-.1-4.34-2.99-9.07-2.79-13.6-.44-1.58,.82-2.45,1.2-3.64-.41-1.44-1.96-3.67-1.35-5.51-.9-1.98,.48-1.95,2.43-1.96,4.08-.03,3.61,0,7.21,0,10.82Zm192.3,16.07c3.74,.23,7.31-.57,10.61-2.12,4.74-2.23,7.26-5.99,7.3-11.33,.03-5.3-2.84-8.53-7.43-10.56-1.5-.66-3.12-1.08-4.71-1.52-2.7-.75-5.46-1.32-8.1-2.21-1.36-.46-2.68-1.29-3.75-2.25-1.47-1.33-1.33-2.88,.04-4.29,2.87-2.94,7.79-3.09,10.72-.2,1.04,1.03,1.78,2.34,2.65,3.53,1.61,2.2,4.33,3.04,6.47,1.98,1.83-.91,2.75-3.59,1.86-6.06-1.19-3.28-3.67-5.54-6.89-6.66-6.49-2.26-13.02-2-19.35,.74-2.34,1.01-4.05,2.75-5.12,5.12-2.69,5.95-.11,12.4,6.32,14.88,3.53,1.36,7.26,2.23,10.95,3.12,2.21,.53,4.02,1.5,5.42,3.22,1.45,1.8,1.39,2.98-.12,4.83-3.72,4.55-10.67,4.19-14.01-.77-.82-1.22-1.29-2.68-2.14-3.88-1.39-1.97-3.64-2.52-5.7-1.59-2,.9-3.22,3.08-2.44,5.31,.69,1.97,1.72,3.93,3.04,5.54,3.71,4.51,9.08,4.86,14.4,5.19Zm-71.75-25.71s.08,0,.13,0c0-4.27-.01-8.54,0-12.81,0-1.77-.56-3.26-2.18-4.13-3.17-1.72-6.99,.14-7.56,3.71-.18,1.12-.11,2.29-.11,3.44,0,6.4-.04,12.81,0,19.21,.04,5.68-3.74,8.58-8.05,8.7-5.25,.14-8.32-2.34-9.13-7.67-.17-1.13-.11-2.29-.11-3.44,0-5.75,0-11.5,0-17.24,0-1.15,.1-2.32-.08-3.44-.42-2.6-2.47-3.91-5.54-3.68-2.46,.18-3.99,1.5-4.01,4.06-.08,8.7-.27,17.42,.13,26.1,.26,5.69,3.46,10.01,9.16,11.62,5.78,1.64,11.74,1.92,17.63,.19,5.78-1.7,9.4-6.21,9.69-12.31,.19-4.1,.04-8.21,.04-12.31Zm205.82,8.74c.15-.03,.31-.06,.46-.09,0-2.29,.19-4.61-.04-6.88-.34-3.28-1.79-6.05-5.19-7.1-5.66-1.75-11.41-1.76-17.06,0-4.33,1.35-6.95,5.2-6.17,8.87,.17,.82,.92,1.8,1.67,2.16,1.84,.89,4.15,.1,5.58-1.57,.64-.75,1.3-1.48,1.97-2.2,1.91-2.08,4.37-2.13,6.9-1.7,2.13,.36,3.11,2.11,3.3,3.85,.21,1.98-1.8,1.86-3.18,2.18-1.76,.41-3.52,.86-5.28,1.28-2.55,.62-5.19,1.02-7.64,1.91-3.49,1.27-4.88,3.78-4.78,7.76,.09,3.92,1.67,6.29,5.19,7.53,4.24,1.49,8.59,1.55,12.46-.7,2.94-1.71,5.04-2.34,7.35,.8,.98,1.33,3.62,1.14,5.03,.15,1.49-1.05,1.9-2.32,1.47-4.25-.89-3.95-1.38-8-2.03-12ZM67.12,66.01c5.69,.34,9.59-1.98,11.51-7.37,.22-.61,.58-1.18,.81-1.79,3.44-8.82,6.89-17.64,10.26-26.49,.57-1.5,.97-3.14,1.07-4.74,.15-2.53-.93-3.51-3.53-3.71-2.65-.2-3.42,.2-4.66,3.37-1.96,5.02-3.72,10.12-5.56,15.18-.16,.45-.19,1.02-.49,1.33-.18,.19-.99,.17-1.13-.03-.37-.51-.54-1.16-.76-1.76-1.77-5.1-3.45-10.23-5.34-15.28-.97-2.59-2.9-3.38-5.59-2.75-2.17,.5-3.23,2.17-2.85,4.95,.2,1.43,.73,2.84,1.28,4.2,2.66,6.68,5.35,13.36,8.11,20.01,.52,1.26,.81,2.32,.24,3.72-1.47,3.62-2.16,4.16-6.66,4.29-3.16,.09-3.75,.47-3.93,2.55-.21,2.38,.5,3.32,3.29,3.95,1.27,.29,2.62,.26,3.93,.37Zm174.03-11.91c11.54-.03,16.71-6.75,16.62-15.99-.11-10.81-6.11-16.15-16.42-16.17-11.4-.02-16.49,6.37-16.61,15.94-.12,9.86,5.92,16.2,16.41,16.22Zm-102.34-16.19c0,3.94-.09,7.88,.03,11.82,.09,3.13,1.68,4.49,4.68,4.36,2.62-.12,3.97-1.25,4.1-3.92,.16-3.28-.06-6.57,.09-9.84,.11-2.44,.36-4.91,.91-7.29,.58-2.48,3.54-4.52,5.93-4.5,2.29,.02,3.73,1.64,4.28,5.09,.31,1.93,.44,3.9,.5,5.86,.11,3.61-.03,7.23,.2,10.82,.18,2.84,1.31,3.69,4.15,3.78,2.77,.09,4.57-1.22,4.63-3.94,.15-6.4,.2-12.81,0-19.2-.14-4.42-2.6-6.92-7-8.37-3.86-1.28-7.51-.78-11.04,.91-1.56,.75-2.77,1.5-4.12-.4-1.25-1.77-3.31-1.45-5.01-.89-1.99,.65-2.41,2.41-2.36,4.4,.1,3.77,.03,7.55,.03,11.32Zm137.54-16.01c-9.66-.09-15.17,5.52-15.91,12.86-.23,2.27-.18,4.6-.01,6.88,.36,4.99,2.98,8.86,7.47,10.79,6.56,2.82,13.27,2.45,19.5-1.31,2.18-1.32,3.6-3.36,3.81-6.03,.27-3.51-1.14-4.94-4.67-4.38-1.01,.16-2.03,.92-2.82,1.64-1.08,.99-1.84,2.33-2.94,3.31-3,2.68-6.57,2.4-9.18-.6-3.29-3.77-3.25-10.31,.07-14.11,2.69-3.07,6.07-3.29,9.08-.52,1.09,1.01,1.98,2.22,3.09,3.2,1.4,1.23,4.72,1.34,6.08,.33,1.19-.89,1.64-3.03,.58-4.97-.83-1.53-1.97-3.09-3.37-4.08-3.17-2.25-6.84-3.23-10.78-3.01Zm67.85,10.16h0c0,2.62,0,5.23,0,7.85,0,3.27-.14,6.55,.07,9.81,.21,3.24,2.11,4.65,5.28,4.36,2.94-.27,4.14-1.7,4.16-5.53,.07-10.63,.03-21.26,0-31.89,0-.96-.14-1.96-.41-2.88-.45-1.56-1.61-2.39-3.22-2.67-3.54-.62-5.75,1.03-5.85,4.76-.14,5.39-.04,10.79-.04,16.19Zm-170.49,5.43c0,3.92-.13,7.84,.04,11.75,.18,4.1,3.12,6.01,6.74,4.54,2.37-.96,2.75-3.03,2.75-5.25,0-6.2,0-12.41,0-18.61,0-1.47,.09-2.96-.14-4.4-.37-2.3-1.69-3.37-4.01-3.59-3.36-.33-5.2,1.21-5.34,4.79-.14,3.59-.03,7.18-.03,10.77Zm121.64,.54c0,3.75-.14,7.51,.04,11.26,.19,4.08,3.17,5.98,6.78,4.47,2.36-.98,2.71-3.06,2.71-5.28,0-6.53,0-13.06,0-19.59,0-.98,.06-1.97-.08-2.93-.4-2.81-1.78-3.97-4.62-4.04-3.11-.07-4.68,1.39-4.8,4.85-.13,3.75-.03,7.51-.03,11.26Zm-117.03-18.43c3.01,.01,4.85-1.59,4.89-4.26,.04-2.62-1.92-4.33-4.87-4.25-2.72,.07-4.51,1.63-4.62,4.03-.13,2.71,1.68,4.47,4.6,4.49Zm121.86,0c2.95-.08,4.77-1.82,4.66-4.48-.1-2.58-2.15-4.21-5.09-4.03-2.68,.16-4.41,1.82-4.4,4.25,0,2.67,1.89,4.34,4.83,4.26Z"/><path class="cls-1" d="M363.96,10.89c-.82-1.41-1.58-2.85-2.47-4.21-6.07-9.22-23.75-7.73-26.86,3.09-.51,1.76-1.67,2.06-3.4,2.02-4.48-.11-8.97-.09-13.44,.11-1.84,.08-2.67-.62-3.35-2.16C310.21,.12,302.33-.2,294.55,1.48c-4.07,.88-6.83,4.11-8.49,7.76-1.04,2.3-2.32,2.74-4.56,2.53-2.31-.21-4.65,.02-6.97-.07-4.96-.2-9.59,.8-13.66,3.7-1.43,1.02-2.53,.96-4,0-7.33-4.73-15.49-4.33-23.58-3.06-2.83,.44-4.43,.24-6.19-2.2-4.3-5.95-10.41-9.08-17.82-9.22-6.6-.12-13.31-.8-19.61,2.21-.66,.32-1.92-.01-2.64-.46-4.3-2.64-9.04-2.27-13.53-1.38-4.44,.88-7.31,4.3-9.27,8.27-.63,1.26-1.16,2.2-2.85,2.17-5.14-.08-10.28-.07-15.42,.01-1.89,.03-2.87-.57-3.7-2.39-2.62-5.75-7.02-8.61-13.72-8.62-5.43,0-9.76,1.37-13.09,5.59-.73,.93-1.39,1.26-2.3,.14-.72-.89-1.59-1.68-2.44-2.46-.73-.66-1.45-1.47-2.33-1.81-6.37-2.46-17.24-2.98-21.54,6.27-1.05,2.25-2.21,3.07-4.6,3.54-2.29,.45-4.34,2.82-6.53,2.86-2.01,.04-3.97-2.49-6.12-2.83-3.71-.58-7.56-.88-11.3,.54-1.14,.43-2.53,.3-3.8,.34-4.79,.16-9.57,.29-14.36,.43-.65,.02-1.33,.2-1.95,.07-8.23-1.62-16.54-.36-24.81-.63-4.96-.16-8.41,2.86-10.46,7.12-.97,2.01-1.53,4.39-1.59,6.62-.19,7.88-.11,15.76-.06,23.64,.02,3.93,1.35,7.37,4.2,10.21,2.58,2.56,5.52,4.1,9.3,3.92,3.46-.16,6.97,.37,10.2-1.53,.63-.37,1.85,0,2.7,.31,5.2,1.83,10.36,1.84,15.53-.04,2.45-.89,5.31,.05,5.95,2.48,1.41,5.27,5.13,8.2,9.74,10.43-18.94,0-37.89-.03-56.83,.05-1.73,0-2.05-.31-2.05-2.02C.08,49.99,.08,26.01,0,2.02,0,.31,.32,0,2.05,0,18.5,.09,34.95,.05,51.4,.05H359.47c1.16,0,2.33,.07,3.49-.02,.87-.07,1.04,.16,1.03,1.01-.07,3.28-.03,6.57-.03,9.86Z"/><path class="cls-1" d="M75.82,75.94c.67-.44,1.29-.96,2.01-1.31,4.5-2.19,7.74-5.61,9.91-10.01,1.02-2.06,1.81-4.23,2.67-6.36,.55-1.35,1.15-1.83,2.43-.6,5.19,5,11.56,6.82,18.66,6.62,1.49-.04,2.99-.08,4.48,0,5.08,.3,9.95-.43,14.45-2.88,1.36-.74,2.26-.5,3.54,.37,4.77,3.25,12.41,3.58,17.47,.9,1.17-.62,2.07-1.57,3.53-.49,4.28,3.14,9.16,2.08,13.93,1.78,1.43-.09,2.89-.14,4.32-.02,4.78,.38,9.65,1.32,13.94-1.73,1.65-1.17,2.84-.05,4.15,.39,7.05,2.39,19.99,2.42,26.43-.1,2-.78,3.88-2.55,5.82-2.56,1.91,0,3.74,1.9,5.75,2.53,9.34,2.91,18.59,3.19,27.39-1.78,1.52-.86,2.54-.88,4,.06,3.99,2.57,8.41,3.69,13.23,3.57,5.3-.13,10.65,.37,15.64-2.11,.54-.27,1.56,0,2.19,.34,4.87,2.62,9.87,2.16,14.96,.87,1.06-.27,2.3-.57,3.27-.27,5.87,1.83,11.78,1.31,17.71,.57,1.11-.14,2.25,.03,3.38,.11,.49,.04,.96,.34,1.45,.34,6.76,.03,13.53,.22,20.28-.02,3.49-.13,6.09-2.41,8.26-5.01,1.03-1.24,1.94-2.59,2.9-3.89,0,6.41-.05,12.81,.04,19.22,.02,1.27-.27,1.66-1.54,1.5-.98-.12-1.99-.02-2.99-.02H75.82Z"/><path class="cls-1" d="M12.03,38.07c0-3.61-.02-7.21,0-10.82,.01-1.65-.02-3.6,1.96-4.08,1.84-.45,4.07-1.06,5.51,.9,1.19,1.61,2.06,1.23,3.64,.41,4.53-2.35,9.26-2.55,13.6,.44,1.5,1.03,2.31,1.14,3.79,.1,3.29-2.31,7.12-2.66,10.95-1.88,4.46,.91,7.07,4.1,7.18,8.74,.14,5.9,.11,11.81,0,17.71-.05,2.94-1.48,4.34-4.1,4.49-3.3,.19-5.22-1.14-5.41-4.33-.24-4.09-.08-8.19-.09-12.29,0-.98,.04-1.97-.01-2.95-.13-2.67-1.48-4.72-3.19-4.94-1.5-.19-4.36,1.65-4.92,3.59-.58,2.02-.89,4.16-.98,6.27-.16,3.44,.05,6.89-.08,10.33-.12,3.21-1.55,4.42-4.68,4.34-2.86-.08-4.16-1.24-4.26-4.25-.13-3.77,.02-7.54-.06-11.31-.04-1.79-.33-3.57-.55-5.35-.25-1.97-1.14-3.45-3.34-3.63-1.77-.15-4.05,1.2-4.58,3.13-.69,2.5-1.12,5.11-1.31,7.69-.22,3.1,.04,6.23-.08,9.34-.13,3.25-1.49,4.45-4.64,4.39-2.87-.05-4.18-1.18-4.3-4.21-.15-3.93-.04-7.87-.04-11.8,0,0-.01,0-.02,0Z"/><path class="cls-1" d="M204.33,54.14c-5.31-.32-10.69-.67-14.4-5.19-1.32-1.61-2.36-3.57-3.04-5.54-.78-2.23,.45-4.41,2.44-5.31,2.06-.92,4.31-.38,5.7,1.59,.85,1.2,1.32,2.65,2.14,3.88,3.34,4.97,10.28,5.33,14.01,.77,1.51-1.84,1.57-3.03,.12-4.83-1.39-1.73-3.21-2.69-5.42-3.22-3.69-.89-7.42-1.76-10.95-3.12-6.43-2.48-9-8.93-6.32-14.88,1.07-2.36,2.78-4.11,5.12-5.12,6.33-2.74,12.86-3,19.35-.74,3.22,1.12,5.7,3.37,6.89,6.66,.89,2.47-.03,5.15-1.86,6.06-2.14,1.06-4.85,.23-6.47-1.98-.87-1.19-1.61-2.51-2.65-3.53-2.92-2.89-7.85-2.74-10.72,.2-1.37,1.41-1.51,2.96-.04,4.29,1.06,.96,2.39,1.79,3.75,2.25,2.65,.89,5.41,1.46,8.1,2.21,1.59,.45,3.21,.86,4.71,1.52,4.59,2.03,7.47,5.26,7.43,10.56-.03,5.34-2.56,9.1-7.3,11.33-3.3,1.55-6.87,2.35-10.61,2.12Z"/><path class="cls-1" d="M132.57,28.43c0,4.1,.15,8.22-.04,12.31-.28,6.1-3.91,10.61-9.69,12.31-5.88,1.73-11.85,1.45-17.63-.19-5.7-1.62-8.9-5.93-9.16-11.62-.4-8.69-.21-17.4-.13-26.1,.02-2.56,1.55-3.88,4.01-4.06,3.07-.23,5.12,1.07,5.54,3.68,.18,1.12,.08,2.29,.08,3.44,0,5.75,0,11.5,0,17.24,0,1.15-.06,2.31,.11,3.44,.81,5.33,3.88,7.81,9.13,7.67,4.3-.12,8.08-3.02,8.05-8.7-.04-6.4-.01-12.81,0-19.21,0-1.15-.07-2.32,.11-3.44,.57-3.56,4.39-5.43,7.56-3.71,1.62,.88,2.18,2.36,2.18,4.13-.02,4.27,0,8.54,0,12.81-.04,0-.08,0-.13,0Z"/><path class="cls-1" d="M338.39,37.17c.65,4.01,1.14,8.05,2.03,12,.43,1.92,.02,3.2-1.47,4.25-1.41,.99-4.05,1.18-5.03-.15-2.31-3.14-4.41-2.5-7.35-.8-3.87,2.25-8.22,2.19-12.46,.7-3.52-1.24-5.1-3.6-5.19-7.53-.09-3.97,1.29-6.49,4.78-7.76,2.45-.89,5.09-1.29,7.64-1.91,1.76-.43,3.52-.87,5.28-1.28,1.38-.32,3.4-.2,3.18-2.18-.19-1.75-1.17-3.5-3.3-3.85-2.53-.42-4.98-.37-6.9,1.7-.67,.72-1.33,1.46-1.97,2.2-1.43,1.67-3.74,2.45-5.58,1.57-.75-.36-1.5-1.34-1.67-2.16-.78-3.68,1.83-7.53,6.17-8.87,5.65-1.76,11.41-1.75,17.06,0,3.4,1.05,4.86,3.83,5.19,7.1,.23,2.27,.04,4.58,.04,6.88-.15,.03-.31,.06-.46,.09Zm-9.26,2.26c-3.41,1.03-6.63,1.74-9.6,3.01-2.02,.87-1.89,2.45-.22,3.83,2.08,1.73,4.23,1.41,6.48,.38,2.42-1.1,4.02-2.83,4.26-5.52,.04-.45-.49-.96-.92-1.71Z"/><path class="cls-1" d="M67.12,66.01c-1.31-.11-2.66-.08-3.93-.37-2.79-.63-3.5-1.57-3.29-3.95,.19-2.08,.78-2.47,3.93-2.55,4.5-.12,5.19-.66,6.66-4.29,.57-1.39,.28-2.45-.24-3.72-2.75-6.65-5.44-13.32-8.11-20.01-.54-1.36-1.08-2.77-1.28-4.2-.38-2.78,.68-4.44,2.85-4.95,2.7-.63,4.62,.16,5.59,2.75,1.9,5.05,3.57,10.18,5.34,15.28,.21,.61,.39,1.26,.76,1.76,.14,.2,.95,.23,1.13,.03,.3-.31,.32-.88,.49-1.33,1.84-5.07,3.6-10.16,5.56-15.18,1.24-3.17,2.01-3.57,4.66-3.37,2.6,.2,3.68,1.18,3.53,3.71-.1,1.6-.5,3.23-1.07,4.74-3.37,8.85-6.82,17.66-10.26,26.49-.24,.61-.59,1.17-.81,1.79-1.93,5.38-5.82,7.71-11.51,7.37Z"/><path class="cls-1" d="M241.15,54.09c-10.5-.02-16.54-6.36-16.41-16.22,.12-9.57,5.21-15.97,16.61-15.94,10.31,.02,16.31,5.36,16.42,16.17,.09,9.23-5.08,15.96-16.62,15.99Zm7.84-15.96c-.78-2.3-1.14-4.62-2.28-6.49-2.38-3.91-7.59-4.07-10.47-.62-2.95,3.53-2.71,10.63-.15,13.77,2.9,3.56,7.99,3.6,10.49-.26,1.19-1.83,1.6-4.15,2.41-6.4Z"/><path class="cls-1" d="M138.81,37.91c0-3.78,.07-7.55-.03-11.32-.05-1.99,.37-3.74,2.36-4.4,1.7-.56,3.76-.89,5.01,.89,1.34,1.91,2.55,1.15,4.12,.4,3.52-1.69,7.17-2.19,11.04-.91,4.4,1.45,6.85,3.96,7,8.37,.21,6.39,.16,12.8,0,19.2-.06,2.72-1.87,4.03-4.63,3.94-2.84-.09-3.97-.94-4.15-3.78-.23-3.6-.09-7.22-.2-10.82-.06-1.96-.2-3.93-.5-5.86-.55-3.46-1.99-5.08-4.28-5.09-2.38-.02-5.35,2.02-5.93,4.5-.55,2.38-.79,4.85-.91,7.29-.15,3.28,.07,6.57-.09,9.84-.13,2.67-1.48,3.8-4.1,3.92-3,.13-4.58-1.23-4.68-4.36-.12-3.94-.03-7.88-.03-11.82Z"/><path class="cls-1" d="M276.34,21.9c3.94-.22,7.62,.76,10.78,3.01,1.4,1,2.54,2.55,3.37,4.08,1.06,1.94,.61,4.08-.58,4.97-1.36,1.01-4.68,.91-6.08-.33-1.11-.98-2-2.2-3.09-3.2-3-2.77-6.39-2.55-9.08,.52-3.32,3.8-3.36,10.33-.07,14.11,2.61,2.99,6.18,3.28,9.18,.6,1.09-.98,1.85-2.32,2.94-3.31,.79-.72,1.81-1.48,2.82-1.64,3.53-.56,4.94,.87,4.67,4.38-.21,2.68-1.63,4.71-3.81,6.03-6.23,3.76-12.94,4.13-19.5,1.31-4.49-1.93-7.11-5.8-7.47-10.79-.17-2.28-.22-4.61,.01-6.88,.75-7.34,6.26-12.95,15.91-12.86Z"/><path class="cls-1" d="M344.2,32.06c0-5.4-.11-10.79,.04-16.19,.1-3.73,2.31-5.38,5.85-4.76,1.6,.28,2.77,1.11,3.22,2.67,.27,.93,.4,1.92,.41,2.88,.03,10.63,.06,21.26,0,31.89-.02,3.83-1.23,5.25-4.16,5.53-3.17,.3-5.08-1.12-5.28-4.36-.21-3.26-.06-6.54-.07-9.81,0-2.62,0-5.23,0-7.85h0Z"/><path class="cls-1" d="M173.71,37.48c0-3.59-.11-7.19,.03-10.77,.14-3.57,1.98-5.11,5.34-4.79,2.32,.23,3.64,1.3,4.01,3.59,.23,1.44,.14,2.93,.14,4.4,.01,6.2,0,12.41,0,18.61,0,2.23-.38,4.3-2.75,5.25-3.63,1.47-6.57-.45-6.74-4.54-.17-3.91-.04-7.83-.04-11.75Z"/><path class="cls-1" d="M295.34,38.02c0-3.75-.1-7.51,.03-11.26,.12-3.46,1.69-4.92,4.8-4.85,2.84,.07,4.22,1.23,4.62,4.04,.14,.96,.08,1.95,.08,2.93,0,6.53,0,13.06,0,19.59,0,2.22-.35,4.29-2.71,5.28-3.61,1.51-6.6-.39-6.78-4.47-.17-3.75-.04-7.51-.04-11.26Z"/><path class="cls-1" d="M178.32,19.59c-2.92-.01-4.73-1.78-4.6-4.49,.12-2.4,1.9-3.96,4.62-4.03,2.95-.08,4.91,1.63,4.87,4.25-.04,2.67-1.89,4.27-4.89,4.26Z"/><path class="cls-1" d="M300.18,19.59c-2.94,.07-4.83-1.59-4.83-4.26,0-2.43,1.72-4.09,4.4-4.25,2.94-.18,4.99,1.45,5.09,4.03,.1,2.66-1.71,4.41-4.66,4.48Z"/><path d="M329.13,39.43c.42,.76,.96,1.26,.92,1.71-.25,2.69-1.84,4.41-4.26,5.52-2.25,1.02-4.39,1.35-6.48-.38-1.67-1.39-1.79-2.97,.22-3.83,2.97-1.27,6.19-1.98,9.6-3.01Z"/><path d="M248.99,38.14c-.81,2.24-1.22,4.57-2.41,6.4-2.51,3.86-7.6,3.82-10.49,.26-2.56-3.14-2.8-10.24,.15-13.77,2.88-3.45,8.09-3.29,10.47,.62,1.14,1.87,1.5,4.19,2.28,6.49Z"/><path class="cls-2" d="M59.37,29.13c.33,.49,.66,.99,1,1.48"/><path class="cls-2" d="M258.78,37.01v3.45"/><path class="cls-2" d="M222.88,37.01c.33,1.48,.66,2.96,1,4.44"/><path class="cls-2" d="M317.6,35.04c-.83,.33-1.66,.66-2.49,.99"/><path class="cls-2" d="M297.16,20.75h5.48"/><path class="cls-2" d="M175.53,20.75h5.48"/></svg>